HIERARCHY
ROOT joint_Root
{
	OFFSET 0.0 0.0 0.0
	CHANNELS 6 Xposition Yposition Zposition Zrotation Xrotation Yrotation 
	JOINT Hips
	{
		OFFSET -17.1583 93.1646 452.98
		CHANNELS 6 Xposition Yposition Zposition Zrotation Xrotation Yrotation 
		JOINT Spine
		{
			OFFSET 15.7357 0.0 0.0
			CHANNELS 6 Xposition Yposition Zposition Zrotation Xrotation Yrotation 
			JOINT Chest
			{
				OFFSET 8.98455 -0.406207 0.0
				CHANNELS 6 Xposition Yposition Zposition Zrotation Xrotation Yrotation 
				JOINT Neck
				{
					OFFSET 16.3773 0.0 0.0
					CHANNELS 6 Xposition Yposition Zposition Zrotation Xrotation Yrotation 
					JOINT Head
					{
						OFFSET 6.45672 0.0 0.0
						CHANNELS 6 Xposition Yposition Zposition Zrotation Xrotation Yrotation 
						End Site
						{
							OFFSET 0.0 0.0 0.0
						}
					}
				}
				JOINT Shoulder_L
				{
					OFFSET 12.9942 -0.242716 4.98039
					CHANNELS 6 Xposition Yposition Zposition Zrotation Xrotation Yrotation 
					JOINT UpperArm_L
					{
						OFFSET 5.34809 0.0 0.0
						CHANNELS 6 Xposition Yposition Zposition Zrotation Xrotation Yrotation 
						JOINT LowerArm_L
						{
							OFFSET 24.3286 1.87007e-05 0.0
							CHANNELS 6 Xposition Yposition Zposition Zrotation Xrotation Yrotation 
							JOINT Hand_L
							{
								OFFSET 22.2916 0.0 0.0
								CHANNELS 6 Xposition Yposition Zposition Zrotation Xrotation Yrotation 
								End Site
								{
									OFFSET 0.0 0.0 0.0
								}
							}
						}
					}
				}
				JOINT Shoulder_R
				{
					OFFSET 12.9945 -0.242716 -4.98039
					CHANNELS 6 Xposition Yposition Zposition Zrotation Xrotation Yrotation 
					JOINT UpperArm_R
					{
						OFFSET -5.34813 0.0 0.0
						CHANNELS 6 Xposition Yposition Zposition Zrotation Xrotation Yrotation 
						JOINT LowerArm_R
						{
							OFFSET -24.3289 0.000322201 0.0
							CHANNELS 6 Xposition Yposition Zposition Zrotation Xrotation Yrotation 
							JOINT Hand_R
							{
								OFFSET -22.2915 -0.000108084 0.0
								CHANNELS 6 Xposition Yposition Zposition Zrotation Xrotation Yrotation 
								End Site
								{
									OFFSET 0.0 0.0 0.0
								}
							}
						}
					}
				}
			}
		}
		JOINT UpperLeg_L
		{
			OFFSET -2.19248 -6.46944 0.0
			CHANNELS 6 Xposition Yposition Zposition Zrotation Xrotation Yrotation 
			JOINT LowerLeg_L
			{
				OFFSET 39.0811 0.0 -1.23785e-05
				CHANNELS 6 Xposition Yposition Zposition Zrotation Xrotation Yrotation 
				JOINT Foot_L
				{
					OFFSET 40.9854 0.0 -1.26872e-05
					CHANNELS 6 Xposition Yposition Zposition Zrotation Xrotation Yrotation 
					JOINT Toes_L
					{
						OFFSET 11.7543 0.0 0.0
						CHANNELS 6 Xposition Yposition Zposition Zrotation Xrotation Yrotation 
						End Site
						{
							OFFSET 0.0 0.0 0.0
						}
					}
				}
			}
		}
		JOINT UpperLeg_R
		{
			OFFSET -2.19251 6.46944 0.0
			CHANNELS 6 Xposition Yposition Zposition Zrotation Xrotation Yrotation 
			JOINT LowerLeg_R
			{
				OFFSET -39.0811 -0.00228153 -0.0401928
				CHANNELS 6 Xposition Yposition Zposition Zrotation Xrotation Yrotation 
				JOINT Foot_R
				{
					OFFSET -40.9854 0.0 0.0
					CHANNELS 6 Xposition Yposition Zposition Zrotation Xrotation Yrotation 
					JOINT Toes_R
					{
						OFFSET -11.7543 0.0 0.0
						CHANNELS 6 Xposition Yposition Zposition Zrotation Xrotation Yrotation 
						End Site
						{
							OFFSET 0.0 0.0 0.0
						}
					}
				}
			}
		}
	}
}
MOTION
Frames:	6
Frame Time:	0.0333333
0.000000 0.000000 0.000000 0.000000 0.000000 -0.000000 0.068219 92.879900 -0.577461 86.809500 0.667234 1.602590 15.735700 0.000005 -0.000001 60.276900 87.064800 -58.246800 8.984550 -0.406207 -0.000000 -2.611620 -3.093290 3.990350 16.377300 -0.000001 -0.000001 5.174980 2.262190 -2.580590 6.456720 -0.000001 -0.000000 3.130040 2.336220 -3.318440 12.994200 -0.242716 4.980390 -92.393400 7.353830 -71.915900 5.348090 -0.000007 -0.000001 -74.307900 28.926000 0.509063 24.328600 0.000019 0.000005 12.687400 28.947200 -24.944800 22.291600 -0.000001 0.000005 -3.362890 5.034920 6.567700 12.994500 -0.242716 -4.980390 88.577500 4.283730 -71.610900 -5.348130 -0.000001 -0.000004 -72.592100 11.525700 -3.763350 -24.328900 0.000322 -0.000009 1.115050 3.212390 -19.170500 -22.291500 -0.000108 -0.000004 5.563430 5.241340 1.660740 -2.192480 -6.469440 -0.000000 -176.734000 2.842780 -2.514010 39.081100 -0.000007 -0.000012 0.214592 -0.577375 20.388900 40.985400 -0.000006 -0.000013 3.029080 8.991640 -72.258400 11.754300 -0.000000 0.000003 0.000498 0.158763 -10.137900 -2.192510 6.469440 -0.000001 -175.868000 5.602540 -177.820000 -39.081100 -0.002282 -0.040193 0.022789 -0.085225 12.859100 -40.985400 0.000008 0.000006 -1.821180 2.009030 -68.732800 -11.754300 -0.000006 -0.000006 -0.008657 0.260979 -5.973110
0.000000 0.000000 0.000000 0.000000 0.000000 -0.000000 0.056610 92.890700 -0.605347 86.837200 0.784563 1.540040 15.735700 0.000005 -0.000001 60.129800 87.068500 -58.110400 8.984550 -0.406207 -0.000000 -2.625630 -3.102000 3.968420 16.377300 -0.000001 -0.000001 5.107830 2.291420 -2.579260 6.456720 -0.000001 -0.000000 2.987190 2.361920 -3.379580 12.994200 -0.242716 4.980390 -92.377100 7.299700 -71.907400 5.348090 -0.000007 -0.000001 -74.323400 28.971800 0.447990 24.328600 0.000019 0.000005 12.697400 28.946300 -24.963300 22.291600 -0.000001 0.000005 -3.360800 5.035620 6.552380 12.994500 -0.242716 -4.980390 88.571600 4.296450 -71.590200 -5.348130 -0.000001 -0.000004 -72.124500 11.132900 -3.849030 -24.328900 0.000322 -0.000009 1.276200 3.511390 -20.002600 -22.291500 -0.000108 -0.000004 5.090550 5.227550 2.019050 -2.192480 -6.469440 -0.000000 -176.736000 2.910170 -2.569160 39.081100 -0.000007 -0.000012 0.211925 -0.572562 20.311700 40.985400 -0.000006 -0.000013 3.010990 9.042820 -72.215400 11.754300 -0.000000 0.000003 0.000525 0.158271 -10.157900 -2.192510 6.469440 -0.000001 -175.865000 5.616550 -177.861000 -39.081100 -0.002282 -0.040193 0.022605 -0.084996 12.774600 -40.985400 0.000008 0.000006 -1.780040 1.933460 -68.698300 -11.754300 -0.000006 -0.000006 -0.008644 0.260879 -5.977230
0.000000 0.000000 0.000000 0.000000 0.000000 -0.000000 0.042981 92.899000 -0.634072 86.844200 0.878929 1.443990 15.735700 0.000005 -0.000001 59.956800 87.069600 -57.937300 8.984550 -0.406207 -0.000000 -2.636080 -3.116470 3.968110 16.377300 -0.000001 -0.000001 4.960150 2.338640 -2.584150 6.456720 -0.000001 -0.000000 2.842770 2.415710 -3.360160 12.994200 -0.242716 4.980390 -92.352700 7.240020 -71.944000 5.348090 -0.000007 -0.000001 -74.384600 28.961700 0.420104 24.328600 0.000019 0.000005 12.706600 28.945800 -24.980100 22.291600 -0.000001 0.000005 -3.351810 5.037640 6.508490 12.994500 -0.242716 -4.980390 88.570000 4.308080 -71.617800 -5.348130 -0.000001 -0.000004 -71.513400 10.519600 -3.926620 -24.328900 0.000322 -0.000009 1.522690 3.902490 -21.347800 -22.291500 -0.000108 -0.000004 4.393520 5.218540 2.250580 -2.192480 -6.469440 -0.000000 -176.735000 2.996450 -2.686180 39.081100 -0.000007 -0.000012 0.213947 -0.578745 20.288400 40.985400 -0.000006 -0.000013 3.003730 9.073010 -72.222900 11.754300 -0.000000 0.000003 0.000461 0.159472 -10.109100 -2.192510 6.469440 -0.000001 -175.851000 5.650940 -177.967000 -39.081100 -0.002282 -0.040193 0.022285 -0.083828 12.738900 -40.985400 0.000008 0.000006 -1.841260 1.881570 -68.649300 -11.754300 -0.000006 -0.000006 -0.008623 0.260709 -5.984150
0.000000 0.000000 0.000000 0.000000 0.000000 -0.000000 0.026096 92.909700 -0.688770 86.843600 0.977858 1.349780 15.735700 0.000005 -0.000001 59.887200 87.070400 -57.864500 8.984550 -0.406207 -0.000000 -2.640950 -3.122130 3.974320 16.377300 -0.000001 -0.000001 4.818860 2.341270 -2.513970 6.456720 -0.000001 -0.000000 2.604330 2.499450 -3.346610 12.994200 -0.242716 4.980390 -92.335400 7.199010 -71.972900 5.348090 -0.000007 -0.000001 -74.432100 28.920000 0.408309 24.328600 0.000019 0.000005 12.721200 28.961900 -24.995000 22.291600 -0.000001 0.000005 -3.326170 5.038390 6.491860 12.994500 -0.242716 -4.980390 88.550100 4.358570 -71.579400 -5.348130 -0.000001 -0.000004 -70.709400 9.679230 -3.902880 -24.328900 0.000322 -0.000009 1.803190 4.139210 -23.574800 -22.291500 -0.000108 -0.000004 3.451830 5.194950 2.847160 -2.192480 -6.469440 -0.000000 -176.713000 3.020370 -2.827790 39.081100 -0.000007 -0.000012 0.213030 -0.576963 20.265900 40.985400 -0.000006 -0.000013 2.986050 9.105020 -72.157900 11.754300 -0.000000 0.000003 0.000491 0.158900 -10.132300 -2.192510 6.469440 -0.000001 -175.825000 5.650630 -178.068000 -39.081100 -0.002282 -0.040193 0.021572 -0.081089 12.675500 -40.985400 0.000008 0.000006 -1.893400 1.786140 -68.570900 -11.754300 -0.000006 -0.000006 -0.008339 0.258444 -6.076690
0.000000 0.000000 0.000000 0.000000 0.000000 -0.000000 0.010985 92.928400 -0.738185 86.851200 1.107450 1.218430 15.735700 0.000005 -0.000001 59.444700 87.062600 -57.417500 8.984550 -0.406207 -0.000000 -2.649420 -3.169670 3.982080 16.377300 -0.000001 -0.000001 4.630890 2.368920 -2.433670 6.456720 -0.000001 -0.000000 2.328760 2.578130 -3.223820 12.994200 -0.242716 4.980390 -92.325600 7.179370 -71.998500 5.348090 -0.000007 -0.000001 -74.456800 28.941900 0.404573 24.328600 0.000019 0.000005 12.705800 28.922200 -24.995000 22.291600 -0.000001 0.000005 -3.415220 5.037710 6.506760 12.994500 -0.242716 -4.980390 88.554200 4.349800 -71.594400 -5.348130 -0.000001 -0.000004 -69.947800 8.134870 -3.744530 -24.328900 0.000322 -0.000009 2.375830 4.712980 -26.799100 -22.291500 -0.000108 -0.000004 2.178380 5.162330 3.649650 -2.192480 -6.469440 -0.000000 -176.701000 3.165870 -2.972000 39.081100 -0.000007 -0.000012 0.209711 -0.570955 20.168600 40.985400 -0.000006 -0.000013 2.957420 9.108020 -72.044400 11.754300 -0.000000 0.000003 0.000628 0.156281 -10.238600 -2.192510 6.469440 -0.000001 -175.817000 5.759080 -178.172000 -39.081100 -0.002282 -0.040193 0.020060 -0.075197 12.540100 -40.985400 0.000008 0.000006 -1.942430 1.785000 -68.483500 -11.754300 -0.000006 -0.000006 -0.008548 0.260112 -6.008560
0.000000 0.000000 0.000000 0.000000 0.000000 -0.000000 0.003417 92.948000 -0.794348 86.856900 1.188220 1.059690 15.735700 0.000005 -0.000001 59.424800 87.070600 -57.389900 8.984550 -0.406207 -0.000000 -2.664150 -3.164210 3.997320 16.377300 -0.000001 -0.000001 4.407000 2.349590 -2.286970 6.456720 -0.000001 -0.000000 1.956320 2.630910 -3.054560 12.994200 -0.242716 4.980390 -92.318400 7.161250 -72.008100 5.348090 -0.000007 -0.000001 -74.464200 28.996800 0.395013 24.328600 0.000019 0.000005 12.655700 28.779100 -25.004900 22.291600 -0.000001 0.000005 -3.390130 5.035760 6.549680 12.994500 -0.242716 -4.980390 88.552900 4.335260 -71.521600 -5.348130 -0.000001 -0.000004 -69.228600 5.962150 -3.435110 -24.328900 0.000322 -0.000009 3.020100 5.019510 -31.097900 -22.291500 -0.000108 -0.000004 1.173720 5.124180 4.555430 -2.192480 -6.469440 -0.000000 -176.690000 3.217780 -3.128420 39.081100 -0.000007 -0.000012 0.209255 -0.572665 20.073000 40.985400 -0.000006 -0.000013 2.939030 9.133540 -72.011800 11.754300 -0.000000 0.000003 0.000583 0.157150 -10.203300 -2.192510 6.469440 -0.000001 -175.793000 5.704520 -178.316000 -39.081100 -0.002282 -0.040193 0.019112 -0.071636 12.420900 -40.985400 0.000008 0.000006 -2.041020 1.697730 -68.397700 -11.754300 -0.000006 -0.000006 -0.008471 0.259503 -6.033440
